<?xml version="1.0" encoding="UTF-8" standalone="no"?>
<svg
   viewBox="0 0 640 512"
   version="1.1"
   id="svg4"
   xmlns="http://www.w3.org/2000/svg"
   xmlns:svg="http://www.w3.org/2000/svg">
  <defs
     id="defs8" />
  <!--! Font Awesome Pro 6.2.1 by @fontawesome - https://fontawesome.com License - https://fontawesome.com/license (Commercial License) Copyright 2022 Fonticons, Inc. -->
  <path
     d="M184 88c0 30.9-25.1 56-56 56s-56-25.1-56-56s25.1-56 56-56s56 25.1 56 56zM64 245.7C54 256.9 48 271.8 48 288s6 31.1 16 42.3V245.7zm144.4-49.3C178.7 222.7 160 261.2 160 304c0 34.3 12 65.8 32 90.5V416c0 17.7-14.3 32-32 32H96c-17.7 0-32-14.3-32-32V389.2C26.2 371.2 0 332.7 0 288c0-61.9 50.1-112 112-112h32c24 0 46.2 7.5 64.4 20.3zM448 416V394.5c20-24.7 32-56.2 32-90.5c0-42.8-18.7-81.3-48.4-107.7C449.8 183.5 472 176 496 176h32c61.9 0 112 50.1 112 112c0 44.7-26.2 83.2-64 101.2V416c0 17.7-14.3 32-32 32H480c-17.7 0-32-14.3-32-32zM568 88c0 30.9-25.1 56-56 56s-56-25.1-56-56s25.1-56 56-56s56 25.1 56 56zm8 157.7v84.7c10-11.3 16-26.1 16-42.3s-6-31.1-16-42.3zM320 160c-35.3 0-64-28.7-64-64s28.7-64 64-64s64 28.7 64 64s-28.7 64-64 64zM240 304c0 16.2 6 31 16 42.3V261.7c-10 11.3-16 26.1-16 42.3zm144-42.3v84.7c10-11.3 16-26.1 16-42.3s-6-31.1-16-42.3zM448 304c0 44.7-26.2 83.2-64 101.2V448c0 17.7-14.3 32-32 32H288c-17.7 0-32-14.3-32-32V405.2c-37.8-18-64-56.5-64-101.2c0-61.9 50.1-112 112-112h32c61.9 0 112 50.1 112 112z"
     id="path2" />
  <path
     style="fill:#ffffff;stroke-width:0.500391"
     d="m 89.569977,447.07916 c -11.411801,-2.26537 -21.288642,-11.84531 -24.282972,-23.55302 -0.875714,-3.42401 -0.987436,-5.58096 -0.9927,-19.16521 l -0.0059,-15.30698 -4.331118,-2.25176 C 50.161599,381.7094 40.311122,374.25952 31.739127,365.46092 -0.99308761,331.8634 -9.0140102,281.1612 11.723406,238.93667 17.658472,226.85198 24.60079,217.33482 34.407096,207.83982 51.61014,191.1829 71.839179,181.2082 96.325254,177.30874 c 5.023246,-0.79997 8.965616,-0.91671 31.024236,-0.91868 26.92265,-0.002 30.2583,0.20642 40.926,2.56211 12.97921,2.86613 26.24214,8.45678 37.01217,15.60151 l 2.62932,1.74428 -5.38169,5.3223 c -7.37682,7.29541 -12.8504,13.9506 -18.68451,22.71801 -11.63864,17.4904 -19.22312,37.13781 -22.55805,58.43606 -0.97391,6.2198 -1.12662,9.11338 -1.1195,21.21316 0.007,11.99879 0.169,15.04527 1.12773,21.21316 3.71129,23.87612 12.90067,45.96135 26.97996,64.84209 l 3.72246,4.99191 -0.20801,13.27235 c -0.20259,12.92668 -0.244,13.3765 -1.58975,17.27068 -3.50752,10.14971 -10.91745,17.48185 -21.07349,20.85229 l -3.50273,1.16244 -36.27834,0.091 c -29.23766,0.0734 -36.958138,-0.0439 -39.781083,-0.60429 z M 64.300235,287.93328 c 0,-28.16526 -0.168427,-42.26859 -0.503444,-42.15692 -0.276896,0.0923 -1.821047,1.9273 -3.431446,4.07778 -14.303504,19.10051 -16.541967,45.50588 -5.691956,67.14351 2.597279,5.17964 8.209884,13.26036 9.2102,13.26036 0.229154,0 0.416646,-19.04613 0.416646,-42.32473 z"
     id="path183" />
  <path
     style="fill:#ffffff;stroke-width:0.500391"
     d="M 117.09148,142.6272 C 105.88206,140.19255 97.376293,135.63344 89.194368,127.67433 78.702142,117.46783 73.043527,104.84041 72.455343,90.320563 71.31506,62.17159 90.812339,38.078267 118.84285,32.998253 c 4.20707,-0.762456 14.35897,-0.757003 18.49235,0.0099 16.24748,3.014665 30.2129,12.706565 38.72288,26.873392 5.81476,9.680023 8.62064,22.429953 7.37409,33.507928 -2.64083,23.468867 -18.85671,42.493807 -41.33874,48.499817 -6.92766,1.8507 -18.32916,2.18719 -25.00195,0.73788 z"
     id="path185" />
  <path
     style="fill:#ffffff;stroke-width:0.500391"
     d="m 309.24159,158.81682 c -13.29899,-2.38559 -24.57346,-8.35633 -34.28024,-18.15418 -7.58674,-7.65793 -12.16964,-15.02261 -15.45849,-24.8417 -2.4874,-7.42628 -3.19952,-12.80477 -2.91255,-21.997641 0.27293,-8.742985 1.25638,-13.655805 4.32148,-21.587905 6.41769,-16.608215 21.51991,-30.805552 38.99091,-36.654678 6.74091,-2.256793 12.31459,-3.122877 20.0973,-3.122877 7.78271,0 13.35639,0.866084 20.0973,3.122877 17.49508,5.857188 32.56438,20.023571 38.99091,36.654678 3.0651,7.9321 4.04855,12.84492 4.32148,21.587905 0.28657,9.180051 -0.42545,14.573001 -2.89873,21.955251 -3.27895,9.787 -7.93624,17.27731 -15.47231,24.88409 -9.85675,9.94922 -21.10923,15.84593 -34.72108,18.19511 -5.49269,0.94795 -15.67345,0.92817 -21.07598,-0.0409 z"
     id="path187" />
  <path
     style="fill:#ffffff;stroke-width:0.500391"
     d="m 282.53511,479.3221 c -11.65427,-1.98251 -22.37139,-12.00842 -25.32984,-23.69619 -0.62038,-2.45085 -0.75532,-7.22203 -0.75718,-26.77092 l -0.002,-23.78853 -4.31036,-2.20156 c -8.822,-4.50605 -19.21323,-12.10801 -26.63634,-19.48666 -16.92497,-16.82359 -27.92415,-38.19346 -31.95454,-62.08322 -1.38499,-8.20939 -1.25396,-27.70323 0.24078,-35.82199 4.48166,-24.34243 14.93172,-44.26846 32.10729,-61.22177 14.081,-13.89879 32.33583,-24.07611 51.61456,-28.77585 11.80803,-2.87854 14.52408,-3.0751 42.49302,-3.0751 22.36796,0 26.52984,0.11909 31.52463,0.90203 12.60054,1.97517 22.46649,5.0386 33.33862,10.35186 34.96199,17.08604 58.02914,50.05655 62.25886,88.9883 0.76554,7.04618 0.3659,22.47452 -0.754,29.10887 -5.85955,34.7124 -28.13003,65.59963 -58.47401,81.09839 l -4.33992,2.2167 -0.003,23.78853 c -0.002,26.42805 -0.0302,26.70596 -3.33835,33.47966 -2.42413,4.96362 -8.44757,11.08368 -13.427,13.64238 -7.44765,3.82698 -4.81568,3.61124 -45.28538,3.71198 -20.08636,0.05 -37.47795,-0.11377 -38.96606,-0.36691 z M 390.47595,338.05868 c 4.71404,-7.50478 7.97387,-16.49368 9.12933,-25.17384 0.80103,-6.01763 0.30326,-17.6694 -0.99551,-23.30248 -1.23275,-5.34681 -3.9867,-12.40339 -6.68116,-17.1195 -2.29148,-4.01076 -7.26614,-10.7584 -7.93157,-10.7584 -0.25961,0 -0.43798,17.90531 -0.42497,42.65832 l 0.0224,42.65833 2.10424,-2.35351 c 1.15733,-1.29443 3.30708,-4.26844 4.77721,-6.60892 z m -134.0256,-34.07119 c 0,-23.99436 -0.19036,-42.28303 -0.44011,-42.28303 -1.23543,0 -7.16633,8.70884 -10.05291,14.76153 -9.29617,19.4926 -7.80359,44.00523 3.7692,61.90127 2.74587,4.24619 5.65353,7.90326 6.28371,7.90326 0.24975,0 0.44011,-18.28867 0.44011,-42.28303 z"
     id="path189" />
  <path
     style="fill:#ffffff;stroke-width:0.500391"
     d="m 473.87021,447.09963 c -6.67472,-1.49107 -11.70567,-4.20014 -16.2627,-8.75717 -3.53218,-3.53218 -6.03641,-7.6235 -7.81313,-12.76478 -1.34576,-3.89418 -1.38716,-4.344 -1.58975,-17.27068 l -0.20801,-13.27235 3.72246,-4.99191 c 7.96379,-10.67968 15.40633,-24.42879 19.90222,-36.76674 2.78221,-7.63513 5.69892,-19.20489 7.07774,-28.07535 0.95873,-6.16789 1.12069,-9.21437 1.12774,-21.21316 0.007,-12.09978 -0.1456,-14.99336 -1.11951,-21.21316 -4.93969,-31.54695 -19.01014,-59.2051 -41.43993,-81.45809 l -5.1355,-5.09503 4.10609,-2.64038 c 9.36848,-6.02433 23.07987,-11.78857 34.12954,-14.348 11.46659,-2.65601 14.24258,-2.84503 41.78265,-2.84503 22.5792,0 26.48267,0.11376 31.52463,0.91868 25.59051,4.08539 46.81301,14.94667 64.33739,32.92667 39.57768,40.60668 42.38475,104.01112 6.56547,148.29695 -9.1352,11.29447 -24.1676,23.37182 -36.50099,29.32567 l -2.37685,1.1474 v 15.33237 c 0,13.62186 -0.11009,15.76279 -0.98678,19.1906 -3.06541,11.98565 -12.86946,21.34518 -24.70228,23.58225 -5.47407,1.03491 -71.50253,1.02731 -76.1405,-0.009 z M 579.66855,326.26068 c 5.23167,-7.05595 9.36862,-16.38058 11.32469,-25.52573 2.69686,-12.60848 0.52839,-29.43376 -5.29446,-41.08014 -2.51625,-5.03281 -8.73584,-13.96286 -9.72482,-13.96286 -0.15081,0 -0.27419,19.15324 -0.27419,42.56276 0,30.5534 0.15367,42.46778 0.54464,42.22615 0.29956,-0.18514 1.84042,-2.08422 3.42414,-4.22018 z"
     id="path191" />
  <path
     style="fill:#ffffff;stroke-width:0.500391"
     d="m 502.30763,142.90006 c -21.12899,-4.00512 -38.06921,-19.40213 -43.91094,-39.9108 -9.44519,-33.159345 13.92897,-67.169465 48.40545,-70.431435 18.49844,-1.750218 36.9674,6.074443 48.60473,20.59214 4.2376,5.286465 8.83451,14.43621 10.63001,21.158088 1.20657,4.517144 1.33674,5.855748 1.33806,13.760751 10e-4,7.998689 -0.1173,9.190069 -1.37042,13.760746 -1.65643,6.04174 -4.85009,12.94928 -8.28288,17.91499 -3.04784,4.40885 -10.08827,11.37713 -14.48593,14.33747 -4.70149,3.16486 -11.8822,6.40442 -17.43625,7.8663 -6.03511,1.5885 -17.65014,2.05908 -23.49183,0.95175 z"
     id="path193" />
</svg>
