<?xml version="1.0" encoding="iso-8859-1"?>
<!-- Generator: Adobe Illustrator 16.0.0, SVG Export Plug-In . SVG Version: 6.00 Build 0)  -->
<!DOCTYPE svg PUBLIC "-//W3C//DTD SVG 1.1//EN" "http://www.w3.org/Graphics/SVG/1.1/DTD/svg11.dtd">
<svg version="1.1" id="Capa_1" xmlns="http://www.w3.org/2000/svg" xmlns:xlink="http://www.w3.org/1999/xlink" x="0px" y="0px"
	 width="69.983px" height="69.983px" viewBox="0 0 69.983 69.983" style="enable-background:new 0 0 69.983 69.983;"
	 xml:space="preserve">
<g>
	<path d="M51.383,50.713H21.667v-2.336h29.714v2.336H51.383z M51.104,56.553H21.388v2.336h29.716V56.553z M51.101,17.236H35.57
		v2.336h15.531V17.236z M51.101,24.975H35.57v2.335h15.531V24.975z M51.101,32.706H21.942v2.336h29.16v-2.336H51.101z
		 M51.101,40.448H21.942v2.336h29.16v-2.336H51.101z M25.175,2.245l-6.836,4.94h3.208h38.677v55.49v3.864v0.784v0.78v1.88H13.716
		V31.375h3.649v31.163h38.758V11.88H17.367v2.614h-3.648v-7.31L23.666,0h41.659L63.19,2.245H25.175z M38.025,64.436h-3.505v3.504
		h3.505V64.436z M4.658,28.059h1.075h1.065v-3.647c0.604-0.016,1.32-0.021,2.146-0.016c1.168,0,2.055-0.288,2.666-0.86
		c0.607-0.569,0.913-1.412,0.913-2.517c0-1.045-0.306-1.843-0.913-2.385c-0.61-0.546-1.498-0.822-2.666-0.822H5.726H4.658V28.059z
		 M6.797,19.576h1.784c0.601,0,1.049,0.12,1.351,0.365c0.299,0.243,0.448,0.611,0.448,1.099c0,0.535-0.149,0.927-0.448,1.197
		c-0.301,0.263-0.75,0.396-1.351,0.396H6.797V19.576z M14.176,28.059h1.067h3.145c1.469,0,2.581-0.457,3.343-1.37
		c0.761-0.912,1.139-2.249,1.139-4.005c0-1.596-0.367-2.806-1.101-3.635c-0.729-0.827-1.801-1.238-3.209-1.238h-3.316h-1.067V28.059
		L14.176,28.059z M16.315,19.576h1.981c0.815,0,1.422,0.265,1.826,0.8c0.405,0.529,0.608,1.326,0.608,2.389
		c0,1.177-0.22,2.058-0.651,2.646c-0.437,0.589-1.087,0.885-1.956,0.885h-1.806L16.315,19.576L16.315,19.576z M25.558,28.059h1.067
		v-4.334h4.489v-0.885v-0.88h-4.489v-2.327h5.151V18.72v-0.909h-7.291v10.248H25.558z"/>
</g>
<g>
</g>
<g>
</g>
<g>
</g>
<g>
</g>
<g>
</g>
<g>
</g>
<g>
</g>
<g>
</g>
<g>
</g>
<g>
</g>
<g>
</g>
<g>
</g>
<g>
</g>
<g>
</g>
<g>
</g>
</svg>
