<?xml version="1.0" encoding="UTF-8"?>
<svg xmlns="http://www.w3.org/2000/svg" xmlns:xlink="http://www.w3.org/1999/xlink" width="20px" height="20px" viewBox="0 0 20 20" version="1.1">
<g id="surface1">
<path style=" stroke:none;fill-rule:nonzero;fill:rgb(0%,0%,0%);fill-opacity:1;" d="M 10 12.414062 C 13.21875 12.414062 15.847656 9.78125 15.847656 6.542969 C 15.847656 3.28125 13.21875 0.652344 10 0.652344 C 6.78125 0.652344 4.152344 3.28125 4.152344 6.523438 C 4.152344 9.78125 6.78125 12.414062 10 12.414062 Z M 10 2.390625 C 12.261719 2.390625 14.109375 4.238281 14.109375 6.523438 C 14.109375 8.804688 12.261719 10.652344 10 10.652344 C 7.738281 10.652344 5.890625 8.804688 5.890625 6.523438 C 5.890625 4.238281 7.738281 2.390625 10 2.390625 Z M 12.71875 12.976562 C 12.433594 12.890625 12.109375 12.957031 11.890625 13.152344 L 10 14.761719 L 8.109375 13.152344 C 7.871094 12.957031 7.566406 12.890625 7.28125 12.976562 C 6.066406 13.371094 0 15.457031 0 18.476562 C 0 18.957031 0.390625 19.347656 0.871094 19.347656 L 19.128906 19.347656 C 19.609375 19.347656 20 18.957031 20 18.476562 C 20 15.457031 13.933594 13.371094 12.71875 12.976562 Z M 2.195312 17.609375 C 3.152344 16.585938 5.457031 15.457031 7.371094 14.804688 L 9.433594 16.566406 C 9.761719 16.847656 10.238281 16.847656 10.566406 16.566406 L 12.628906 14.804688 C 14.542969 15.476562 16.847656 16.609375 17.804688 17.609375 Z M 2.195312 17.609375 "/>
</g>
</svg>
