<?xml version="1.0" encoding="UTF-8" standalone="no"?>
<svg
   style="enable-background:new 0 0 24 24;"
   version="1.1"
   viewBox="0 0 24 24"
   xml:space="preserve"
   id="svg263"
   xmlns="http://www.w3.org/2000/svg"
   xmlns:svg="http://www.w3.org/2000/svg"><defs
     id="defs267" /><style
     type="text/css"
     id="style249">
	.st0{display:none;}
</style><g
     class="st0"
     id="grid" /><g
     id="icon"><path
       d="M1.226,24h16.548C18.45,24,19,23.45,19,22.774V17.5c0-0.276-0.224-0.5-0.5-0.5S18,17.224,18,17.5v5.274   C18,22.898,17.898,23,17.774,23H1.226C1.102,23,1,22.898,1,22.774V2.226C1,2.102,1.102,2,1.226,2h1.866C3.299,2.581,3.849,3,4.5,3   h10c0.651,0,1.201-0.419,1.408-1h1.866C17.898,2,18,2.102,18,2.226v3.839c0,0.276,0.224,0.5,0.5,0.5s0.5-0.224,0.5-0.5V2.226   C19,1.55,18.45,1,17.774,1h-1.866c-0.207-0.581-0.757-1-1.408-1h-10C3.849,0,3.299,0.419,3.092,1H1.226C0.55,1,0,1.55,0,2.226   v20.549C0,23.45,0.55,24,1.226,24z M4.5,1h10C14.776,1,15,1.225,15,1.5S14.776,2,14.5,2h-10C4.224,2,4,1.775,4,1.5S4.224,1,4.5,1z"
       id="path252" /><path
       d="M15,7.5C15,7.224,14.776,7,14.5,7h-10C4.224,7,4,7.224,4,7.5S4.224,8,4.5,8h10C14.776,8,15,7.776,15,7.5z"
       id="path254" /><path
       d="M12.286,12.5c0-0.276-0.224-0.5-0.5-0.5H4.5C4.224,12,4,12.224,4,12.5S4.224,13,4.5,13h7.286   C12.063,13,12.286,12.776,12.286,12.5z"
       id="path256" /><path
       d="M4.5,17C4.224,17,4,17.224,4,17.5S4.224,18,4.5,18h5c0.276,0,0.5-0.224,0.5-0.5S9.776,17,9.5,17H4.5z"
       id="path258" /><path
       d="M13.5,17.5c0.044,0,0.089-0.006,0.133-0.018l2.318-0.639c0.083-0.023,0.16-0.067,0.221-0.129l7.334-7.335   c0.657-0.658,0.657-1.728,0-2.386c-0.637-0.637-1.749-0.637-2.386,0l-7.334,7.335c-0.061,0.062-0.105,0.137-0.128,0.221   l-0.639,2.317c-0.048,0.173,0.001,0.359,0.128,0.486C13.241,17.448,13.369,17.5,13.5,17.5z M14.586,14.942l7.241-7.241   c0.26-0.26,0.712-0.26,0.972,0c0.268,0.268,0.268,0.704,0,0.972l-7.241,7.241l-1.341,0.37L14.586,14.942z"
       id="path260" /></g><path
     style="fill:#ffffff;stroke-width:0.023369"
     d="M 1.0866602,23.975519 C 0.63351613,23.919863 0.26297828,23.628115 0.08667772,23.188168 L 0.02336904,23.030185 0.01652054,12.584226 C 0.01149968,4.925954 0.01667931,2.1014493 0.03592954,2.0003051 0.10640221,1.6300289 0.36660248,1.295883 0.71267678,1.1312346 0.95527156,1.0158177 1.0661779,1.0058265 2.1265823,1.0038593 l 0.9814995,-0.00182 0.086273,-0.17969508 C 3.4045626,0.38451066 3.8429623,0.08219121 4.3522904,0.02383409 4.6341366,-0.00845894 14.367094,-0.00820555 14.649095,0.02410215 c 0.507688,0.05816372 0.925375,0.34569331 1.161641,0.79965637 l 0.09426,0.18110998 0.974474,4.057e-4 c 0.742311,3.092e-4 1.011039,0.00816 1.12795,0.032941 0.477609,0.1012468 0.856622,0.4760347 0.954098,0.9434612 0.0177,0.084894 0.02583,0.7613908 0.02583,2.1512053 v 2.0273674 l -0.0613,0.1230027 c -0.08331,0.1671777 -0.200663,0.2435149 -0.393209,0.2557753 -0.163935,0.010439 -0.280803,-0.0348 -0.391716,-0.1516286 -0.138924,-0.1463332 -0.13528,-0.085579 -0.13528,-2.2555532 0,-1.3167204 -0.0081,-2.0001021 -0.02406,-2.0299261 -0.05976,-0.1116599 -0.0974,-0.1155507 -1.117836,-0.1155507 H 15.90668 l -0.08914,0.18111 c -0.129376,0.2628558 -0.39483,0.5261218 -0.662718,0.6572574 -0.363813,0.1780917 0.0595,0.1656895 -5.6553069,0.1656895 -5.7148066,0 -5.2914942,0.012402 -5.6553067,-0.1656895 C 3.5763181,2.6935999 3.3108645,2.4303339 3.1814881,2.1674781 l -0.089142,-0.18111 H 2.137341 c -1.0263448,0 -1.0500047,0.00256 -1.110856,0.1202342 C 0.9978102,2.1620533 0.993184,3.6076648 0.993184,12.51259 v 10.34159 l 0.0681899,0.07632 0.06819,0.07632 8.3350849,0.0059 c 7.5590392,0.0054 8.3423352,0.0025 8.4129622,-0.03102 0.04283,-0.02033 0.08658,-0.05455 0.09721,-0.07605 0.01063,-0.0215 0.02459,-1.274729 0.03102,-2.784953 l 0.01168,-2.745862 0.05842,-0.104123 c 0.198056,-0.352982 0.700995,-0.333384 0.86781,0.03382 0.04038,0.08889 0.04258,0.234524 0.04307,2.852155 4.46e-4,2.401271 -0.0041,2.776515 -0.03525,2.89776 -0.108607,0.422952 -0.416167,0.744386 -0.852259,0.890704 -0.123921,0.04158 -0.428483,0.04323 -8.494644,0.04606 -4.6013632,0.0016 -8.4344693,-0.0055 -8.5180136,-0.01573 z M 14.732279,1.9478834 C 15.050788,1.789164 15.105991,1.3613137 14.838358,1.1257331 14.777001,1.0717247 14.690966,1.0229053 14.630159,1.007594 14.482736,0.97047237 4.5162906,0.97047237 4.3688675,1.007594 4.3078607,1.0229556 4.2219456,1.071795 4.1599836,1.126336 3.8941601,1.3603233 3.9500039,1.7900437 4.2667469,1.9478834 l 0.1241241,0.061854 h 5.1086421 5.1086419 z"
     id="path269" /><path
     style="fill:#ffffff;stroke-width:0.023369"
     d="M 4.2999026,7.9368716 C 4.2356378,7.9066865 4.1652326,7.8619068 4.1434466,7.8373613 4.0837604,7.7701148 4.0088826,7.5919816 4.0083029,7.5158564 4.0067726,7.314901 4.1644007,7.094713 4.349352,7.0394509 c 0.1291001,-0.038574 10.160965,-0.041972 10.299558,-0.00349 0.17901,0.049706 0.343332,0.2804098 0.341813,0.4798942 -5.79e-4,0.076125 -0.07546,0.2542584 -0.135143,0.3215049 -0.02179,0.024545 -0.09219,0.069325 -0.156456,0.09951 L 14.582278,7.991752 H 9.4995131 4.4167478 Z"
     id="path271" /><path
     style="fill:#ffffff;stroke-width:0.023369"
     d="M 4.3556394,12.961091 C 4.217349,12.91143 4.1322533,12.8365 4.0682231,12.708008 c -0.067238,-0.134929 -0.074175,-0.212583 -0.031693,-0.354761 0.03691,-0.123532 0.1955301,-0.28353 0.3135862,-0.316311 0.1314747,-0.03651 7.4729677,-0.03521 7.5821317,0.0013 0.205947,0.06895 0.333333,0.245663 0.334833,0.46448 0.0012,0.172938 -0.08598,0.324204 -0.238491,0.413853 l -0.110382,0.06489 -3.7390451,0.005 c -3.0160449,0.004 -3.7553807,-9.02e-4 -3.8235232,-0.02537 z"
     id="path273" /><path
     style="fill:#ffffff;stroke-width:0.023369"
     d="M 4.3761802,17.971093 C 4.1193481,17.892941 3.9619633,17.62202 4.0307246,17.376429 c 0.037194,-0.132844 0.1391557,-0.25409 0.2648434,-0.314934 0.1004974,-0.04865 0.1108264,-0.04884 2.7049941,-0.04832 2.4826712,4.9e-4 2.6085481,0.0025 2.699241,0.04372 0.1682201,0.0764 0.2899833,0.269265 0.2903294,0.459853 2.36e-4,0.129508 -0.1153465,0.317318 -0.2434035,0.395508 l -0.1150041,0.07022 -2.595804,0.004 c -1.4276922,0.0022 -2.6245755,-0.0047 -2.6597407,-0.01542 z"
     id="path275" /><path
     style="fill:#ffffff;stroke-width:0.023369"
     d="m 13.296981,17.441208 c -0.175036,-0.09228 -0.278094,-0.256571 -0.276147,-0.440234 0.0013,-0.121996 0.629332,-2.4301 0.69469,-2.553052 0.01879,-0.03535 1.725298,-1.753873 3.792234,-3.81893 2.74608,-2.7435851 3.797758,-3.7799435 3.90547,-3.8485789 0.271104,-0.1727514 0.71835,-0.2807913 1.032731,-0.2494734 0.629073,0.062667 1.120889,0.4023003 1.377813,0.951477 0.231597,0.4950404 0.211188,1.0415219 -0.05715,1.5302411 -0.07765,0.1414264 -0.52098,0.5934852 -3.876519,3.9528622 -2.083861,2.086246 -3.815129,3.807129 -3.847262,3.824185 -0.03213,0.01705 -0.59583,0.179358 -1.252661,0.360672 -1.239399,0.342128 -1.353677,0.364386 -1.493201,0.290831 z m 1.621611,-1.337356 0.663481,-0.183903 3.662955,-3.665914 c 3.559272,-3.5621469 3.66442,-3.6698832 3.714677,-3.8061285 0.04087,-0.1108101 0.04956,-0.174519 0.04143,-0.3037974 C 22.984875,7.885724 22.871975,7.7038192 22.652375,7.582176 22.540236,7.520059 22.506691,7.513145 22.317433,7.513145 c -0.170529,0 -0.230217,0.00986 -0.315482,0.05211 -0.07716,0.038234 -1.080374,1.0276793 -3.767392,3.715677 l -3.662231,3.663567 -0.184703,0.671859 c -0.109679,0.398961 -0.174102,0.671766 -0.158606,0.671629 0.01435,-1.17e-4 0.324663,-0.08299 0.689577,-0.184135 z"
     id="path277" /></svg>
