<?xml version="1.0" encoding="UTF-8" standalone="no"?>
<svg
   viewBox="0 0 576 512"
   version="1.1"
   id="svg19"
   xmlns="http://www.w3.org/2000/svg"
   xmlns:svg="http://www.w3.org/2000/svg">
  <defs
     id="defs23" />
  <!--! Font Awesome Pro 6.2.1 by @fontawesome - https://fontawesome.com License - https://fontawesome.com/license (Commercial License) Copyright 2022 Fonticons, Inc. -->
  <path
     d="M575.8 255.5c0 18-15 32.1-32 32.1h-32l.7 160.2c0 2.7-.2 5.4-.5 8.1V472c0 22.1-17.9 40-40 40H456c-1.1 0-2.2 0-3.3-.1c-1.4 .1-2.8 .1-4.2 .1H416 392c-22.1 0-40-17.9-40-40V448 384c0-17.7-14.3-32-32-32H256c-17.7 0-32 14.3-32 32v64 24c0 22.1-17.9 40-40 40H160 128.1c-1.5 0-3-.1-4.5-.2c-1.2 .1-2.4 .2-3.6 .2H104c-22.1 0-40-17.9-40-40V360c0-.9 0-1.9 .1-2.8V287.6H32c-18 0-32-14-32-32.1c0-9 3-17 10-24L266.4 8c7-7 15-8 22-8s15 2 21 7L564.8 231.5c8 7 12 15 11 24z"
     id="path17" />
  <path
     style="fill:#ffffff;stroke-width:0.498539"
     d="M 100.13232,511.48157 C 85.754835,510.15874 72.857605,500.54351 67.263085,486.97666 64.147827,479.42208 64.311587,485.26588 64.311587,381.65296 V 287.15871 H 45.721101 c -14.967004,0 -19.169633,-0.14721 -21.561831,-0.7553 C 13.141886,283.60284 4.0831028,274.54142 1.2406101,263.47809 0.23085557,259.548 0.22693046,251.20962 1.2330074,247.32704 2.8164742,241.21625 5.8475176,236.01028 10.298313,231.75693 15.441089,226.8423 269.81508,5.43097 271.57963,4.3333539 c 4.54609,-2.8278487 9.02649,-3.87557799 16.57616,-3.87629419 6.28313,-5.9606e-4 11.4691,1.19437709 16.35234,3.76797389 2.64192,1.3923637 30.37837,25.5279284 132.71095,115.4817564 71.15405,62.54682 130.44903,114.9863 131.76662,116.53218 2.90135,3.40398 5.64496,8.8141 6.35543,12.53221 1.0742,5.62193 -0.2404,14.40134 -3.02334,20.19085 -3.15381,6.56091 -8.37532,11.88052 -14.70143,14.97759 -6.30837,3.08837 -7.43946,3.21909 -27.85345,3.21909 h -18.42098 l 0.33736,36.01948 c 0.48139,51.39694 0.39604,146.38047 -0.1363,151.68062 -0.24787,2.46777 -0.71825,5.60857 -1.04524,6.97955 -0.92245,3.86732 -5.14896,12.14889 -7.86197,15.40501 -5.28305,6.34064 -13.20894,11.30404 -21.36997,13.38241 l -4.41284,1.1238 h -44.61928 c -50.24454,0 -48.36183,0.12693 -56.83252,-3.81322 -10.37149,-4.82432 -17.65423,-13.15887 -21.49808,-24.60298 l -1.17214,-3.48977 -0.28974,-50.35248 c -0.3198,-55.57656 -0.17042,-53.04839 -3.52764,-59.70522 -4.31509,-8.55613 -11.88266,-14.67022 -21.104,-17.05064 -4.49388,-1.16006 -75.15823,-1.14765 -79.71424,0.014 -4.91076,1.2521 -9.96725,4.01606 -13.74386,7.51262 -4.21228,3.89993 -6.62036,7.44914 -8.68255,12.797 l -1.57544,4.08618 -0.26972,50.60176 c -0.30348,56.93642 -0.022,52.83472 -4.22516,61.56962 -4.99957,10.39001 -14.31485,18.04084 -25.91603,21.28539 -3.9799,1.11309 -4.0788,1.11558 -46.86271,1.17301 -23.58091,0.0319 -44.59031,-0.10036 -46.68754,-0.29329 z"
     id="path198" />
</svg>
