<?xml version="1.0" encoding="UTF-8" standalone="no"?>
<svg
   width="20px"
   height="20px"
   viewBox="0 0 20 20"
   version="1.1"
   id="svg14"
   xmlns="http://www.w3.org/2000/svg"
   xmlns:svg="http://www.w3.org/2000/svg"
   xmlns:rdf="http://www.w3.org/1999/02/22-rdf-syntax-ns#"
   xmlns:cc="http://creativecommons.org/ns#"
   xmlns:dc="http://purl.org/dc/elements/1.1/">
  <defs
     id="defs18" />
  <!-- Generator: Sketch 52.5 (67469) - http://www.bohemiancoding.com/sketch -->
  <title
     id="title2">alternate_email</title>
  <desc
     id="desc4">Created with Sketch.</desc>
  <g
     id="Icons"
     stroke="none"
     stroke-width="1"
     fill="none"
     fill-rule="evenodd">
    <g
       id="Rounded"
       transform="translate(-102.000000, -1218.000000)">
      <g
         id="Communication"
         transform="translate(100.000000, 1162.000000)">
        <g
           id="-Round-/-Communication-/-alternate_email"
           transform="translate(0.000000, 54.000000)">
          <g
             id="g8">
            <polygon
               id="Path"
               points="0 0 24 0 24 24 0 24" />
            <path
               d="M12.72,2.03 C6.63,1.6 1.6,6.63 2.03,12.72 C2.39,18.01 7.01,22 12.31,22 L16,22 C16.55,22 17,21.55 17,21 C17,20.45 16.55,20 16,20 L12.33,20 C8.6,20 5.18,17.58 4.25,13.97 C2.76,8.17 8.16,2.76 13.96,4.26 C17.58,5.18 20,8.6 20,12.33 L20,13.43 C20,14.22 19.29,15 18.5,15 C17.71,15 17,14.22 17,13.43 L17,12.18 C17,9.67 15.22,7.41 12.74,7.06 C9.34,6.57 6.47,9.51 7.08,12.93 C7.42,14.84 8.91,16.42 10.8,16.87 C12.64,17.3 14.39,16.71 15.54,15.54 C16.43,16.76 18.21,17.4 19.84,16.75 C21.18,16.22 22,14.85 22,13.41 L22,12.32 C22,7.01 18.01,2.39 12.72,2.03 Z M12,15 C10.34,15 9,13.66 9,12 C9,10.34 10.34,9 12,9 C13.66,9 15,10.34 15,12 C15,13.66 13.66,15 12,15 Z"
               id="Shape"
               fill="#1D1D1D" />
          </g>
        </g>
      </g>
    </g>
  </g>
  <path
     style="fill:#ffffff;stroke-width:0.0194742"
     d="M 9.902629,19.980191 C 6.1332693,19.831237 2.7105829,17.669427 1.0515388,14.389739 0.42392993,13.149048 0.09943513,11.900685 0.02621197,10.445208 -0.0570726,8.7897371 0.30565951,7.0637797 1.0508793,5.5696203 1.2854472,5.0993135 1.4035421,4.8957554 1.6948662,4.459591 2.1058452,3.844282 2.4862892,3.3864101 3.0237285,2.8602793 3.8145264,2.0861209 4.6586863,1.4913037 5.647517,1.0114894 7.3925468,0.1647416 9.3236339,-0.14758342 11.295034,0.09808634 c 3.243775,0.40422916 6.117244,2.51430586 7.623425,5.59811616 0.555461,1.1372733 0.88912,2.3134205 1.024815,3.6124635 0.04161,0.3983595 0.06201,2.139652 0.02882,2.460137 -0.11453,1.10586 -0.680978,2.084248 -1.536902,2.654586 -0.871799,0.580918 -2.028046,0.728967 -3.075521,0.393799 -0.528566,-0.169129 -1.01088,-0.454446 -1.415212,-0.837179 -0.124454,-0.117807 -0.333913,-0.353475 -0.393933,-0.443224 -0.0028,-0.0041 -0.08198,0.06215 -0.176022,0.147306 -0.628526,0.569096 -1.358399,0.964925 -2.148555,1.165219 C 10.532221,15.025162 9.687998,15.042107 8.96121,14.89477 7.7010039,14.639294 6.5467706,13.849452 5.8209056,12.745862 5.4479665,12.178852 5.1995369,11.549265 5.0793667,10.866602 5.0123202,10.485723 4.9951729,9.8374236 5.0415757,9.4377959 5.2549548,7.6001394 6.4841973,6.0131192 8.2083739,5.3492837 8.8462463,5.1036927 9.4014275,5.0119675 10.14258,5.0297202 c 0.775882,0.018585 1.341064,0.1540806 2.009319,0.4817113 1.364463,0.6689666 2.371837,1.9806552 2.71436,3.5343329 0.09655,0.4379626 0.104041,0.5384578 0.119002,1.5968836 0.0079,0.556963 0.02071,1.034567 0.02852,1.061344 0.09713,0.332834 0.157456,0.459908 0.322075,0.678373 0.275346,0.365412 0.676118,0.593452 1.090629,0.62057 0.629297,0.04117 1.258972,-0.426565 1.506887,-1.119346 l 0.06079,-0.16986 0.0063,-0.856864 c 0.0066,-0.8981744 -0.0083,-1.232237 -0.07664,-1.7234668 C 17.562695,6.5390434 16.040564,4.2524261 13.846154,3.0077591 12.98836,2.5212197 12.030318,2.2047981 10.983447,2.0622666 10.60555,2.0108158 9.7672337,1.9908617 9.3720483,2.023911 8.3654002,2.108097 7.4057316,2.3772245 6.5060915,2.8276345 6.1662828,2.9977614 6.0004876,3.0946699 5.6280428,3.3408596 4.1974138,4.28652 3.0864715,5.6826497 2.4828023,7.2935079 2.2826327,7.8276491 2.1180411,8.5026719 2.0413019,9.104187 c -0.043702,0.3425552 -0.049682,1.380437 -0.00987,1.713729 0.1777808,1.488469 0.6778392,2.753314 1.5395338,3.894089 0.6370111,0.843322 1.5349231,1.627823 2.4741441,2.161646 0.982231,0.558268 2.1019823,0.928684 3.2343488,1.069927 0.4770976,0.05951 0.9012844,0.06987 2.8724444,0.0702 2.16058,3.5e-4 2.075798,-0.0037 2.305133,0.110682 0.140964,0.07032 0.347219,0.276575 0.417539,0.41754 0.148349,0.297382 0.147778,0.64075 -0.0015,0.921007 -0.06947,0.130398 -0.282008,0.34382 -0.403829,0.405508 -0.253476,0.128362 -0.110932,0.120577 -2.258887,0.123379 -1.071081,0.0014 -2.109543,-0.0039 -2.3076929,-0.0117 z m 0.490726,-7.000503 c 0.87355,-0.115407 1.624586,-0.58253 2.113676,-1.314644 0.660853,-0.989227 0.660896,-2.3398703 1.07e-4,-3.3300878 -0.447824,-0.6710806 -1.109032,-1.1138604 -1.922912,-1.2876836 -0.296307,-0.063283 -0.8721452,-0.063283 -1.1684519,0 C 8.4781716,7.2475198 7.7283007,7.8176619 7.3123572,8.6465433 7.0909805,9.0876974 6.9998099,9.4854467 6.9998913,10.009737 c 2.824e-4,1.820401 1.5865194,3.208671 3.3934637,2.969951 z"
     id="path193" />
  <metadata
     id="metadata195">
    <rdf:RDF>
      <cc:Work
         rdf:about="">
        <dc:title>alternate_email</dc:title>
      </cc:Work>
    </rdf:RDF>
  </metadata>
  <path
     style="fill:#1a1a1a;stroke-width:0.0194742"
     d="M 9.6742366,19.959638 C 6.397008,19.750746 3.3672699,18.012442 1.6154497,15.33593 0.67730608,13.902591 0.16979899,12.377563 0.04711317,10.623174 0.01539631,10.169628 0.0341312,9.3412043 0.08608954,8.8997079 0.32106812,6.9030662 1.0797686,5.133859 2.3659796,3.5832522 2.6241353,3.2720294 3.2346672,2.6616726 3.5735151,2.3760631 4.2338857,1.8194471 4.8701422,1.4073513 5.6656351,1.0210217 7.5071585,0.12668956 9.5673426,-0.17265717 11.616358,0.15637587 c 1.502659,0.2412985 2.963761,0.86880043 4.216164,1.81072283 2.054148,1.5449093 3.485622,3.8601981 3.962958,6.4097504 0.143614,0.7670783 0.174874,1.2114841 0.175128,2.4897529 1.94e-4,0.770764 -0.0041,0.892445 -0.0382,1.100292 -0.09398,0.572309 -0.281984,1.060285 -0.581471,1.50925 -0.505618,0.757977 -1.226477,1.242058 -2.134393,1.433317 -0.324081,0.06827 -0.891435,0.08607 -1.21849,0.03824 -0.907868,-0.132787 -1.697902,-0.557754 -2.280075,-1.226472 -0.08938,-0.102664 -0.168661,-0.186661 -0.176186,-0.186661 -0.0075,0 -0.09548,0.07115 -0.195459,0.158116 -0.776389,0.675337 -1.575528,1.064782 -2.51868,1.227432 -0.335644,0.05788 -1.0864674,0.07234 -1.4508273,0.02794 C 8.4439435,14.834365 7.575651,14.460053 6.835443,13.852491 5.8362064,13.032318 5.1799796,11.823842 5.0528481,10.569749 5.0205916,10.251554 5.0377735,9.4558611 5.0821821,9.211295 5.1733523,8.7092018 5.3051073,8.3010436 5.5190828,7.8578384 6.2331572,6.3787829 7.5958072,5.356941 9.211295,5.0890736 c 0.3067385,-0.050861 1.263059,-0.050952 1.585274,-1.558e-4 1.088584,0.1716294 2.14627,0.7660148 2.882616,1.6199375 0.646596,0.7498417 1.057126,1.6225024 1.22986,2.6143056 0.03395,0.1949164 0.04378,0.3894995 0.06618,1.3097451 0.02622,1.077119 0.02649,1.081337 0.0767,1.232473 0.09809,0.295205 0.241701,0.517845 0.47755,0.740333 0.267034,0.251907 0.561747,0.380949 0.909368,0.398173 0.252144,0.01249 0.436481,-0.02671 0.665575,-0.141561 0.389462,-0.195242 0.701491,-0.569529 0.860791,-1.03254 0.03653,-0.106168 0.03867,-0.165048 0.03848,-1.058739 C 18.003493,9.8294639 17.991586,9.5516682 17.93391,9.1431299 17.520756,6.2166234 15.699494,3.7569412 13.113382,2.6328321 12.406664,2.3256417 11.450897,2.0858869 10.693374,2.025771 10.317092,1.9959098 9.4716393,2.0011285 9.1626095,2.0352197 7.3972156,2.2299729 5.7523494,3.0136913 4.4426902,4.2840882 3.1904512,5.498786 2.3737373,7.0503677 2.084898,8.7633885 2.011841,9.1966701 1.990054,9.5828419 2.001948,10.23369 c 0.011111,0.608008 0.036195,0.837334 0.1512382,1.382668 0.317415,1.504628 1.0173114,2.799285 2.1012748,3.886906 0.8571158,0.860008 1.7618816,1.458098 2.8633583,1.892807 0.895169,0.353288 1.7709102,0.549025 2.6684641,0.596429 0.1978753,0.01045 1.2458636,0.02416 2.3288626,0.03046 1.189591,0.0069 2.018072,0.01934 2.092822,0.03138 0.166322,0.02679 0.319816,0.11251 0.467009,0.260821 0.215522,0.217158 0.290943,0.397149 0.290943,0.694325 0,0.290079 -0.08435,0.477003 -0.317216,0.703011 -0.170179,0.165164 -0.314276,0.229118 -0.56257,0.249684 -0.248431,0.02058 -4.083857,0.01837 -4.411897,-0.0025 z m 0.9444664,-7.007136 c 0.614594,-0.136303 1.072247,-0.38533 1.504731,-0.818784 0.263326,-0.263916 0.424482,-0.482144 0.569015,-0.770524 0.423951,-0.845895 0.423951,-1.8804931 0,-2.7263878 C 12.54808,8.3487521 12.386708,8.1301644 12.123434,7.8660423 11.767537,7.5089988 11.424282,7.29597 10.951348,7.13863 10.594282,7.019838 10.466847,7.0014643 10,7.0014643 c -0.4650785,0 -0.5830417,0.016978 -0.9475439,0.1363807 C 8.6156933,7.2809178 8.2422964,7.5072352 7.9045079,7.8336214 7.3558623,8.363747 7.0444241,9.0311155 7.0030641,9.76529 c -0.053997,0.958497 0.2281213,1.72402 0.8728376,2.368428 0.4384796,0.438271 0.9050461,0.692697 1.4942303,0.814829 0.2781241,0.05765 0.2739909,0.05735 0.688291,0.05038 0.293453,-0.0049 0.420771,-0.01549 0.56028,-0.04643 z"
     id="path259" />
</svg>
