<?xml version="1.0" encoding="UTF-8" standalone="no"?>
<svg
   height="130px"
   style="enable-background:new 0 0 128 130;"
   version="1.1"
   viewBox="0 0 128 130"
   width="128px"
   xml:space="preserve"
   id="svg9"
   xmlns="http://www.w3.org/2000/svg"
   xmlns:svg="http://www.w3.org/2000/svg"><style
     type="text/css"
     id="style2">
<![CDATA[
	.st0{fill:#EF3E42;}
	.st1{fill:#FFFFFF;}
	.st2{fill:none;}
	.st3{fill-rule:evenodd;clip-rule:evenodd;fill:#FFFFFF;}
]]>
</style><defs
     id="defs4" /><path
     d="M9.5,65.4c0-29.6,24.1-53.6,53.6-53.6c29.6,0,53.6,24,53.6,53.6c0,29.6-23.9,53.6-53.6,53.6C33.6,119,9.5,95,9.5,65.4  L9.5,65.4L9.5,65.4z M47.3,56.1v7.8H54v29.6h-6.7v7.8h31.5v-7.8h-6.6V63.9h6.6v-7.8H47.3L47.3,56.1L47.3,56.1z M51.9,40.9  c0,6.2,5.1,11.3,11.3,11.3c6.2,0,11.3-5,11.3-11.3c0-6.2-5.1-11.3-11.3-11.3C56.9,29.6,51.9,34.7,51.9,40.9L51.9,40.9L51.9,40.9z"
     id="path6" /><rect
     class="st2"
     height="130"
     id="_x3C_Slice_x3E__100_"
     width="128" /><path
     style="fill:#ffffff;stroke-width:0.126582"
     d="M 60.189873,118.85565 C 49.819384,118.29038 39.704586,114.642 31.337418,108.44866 28.332376,106.22434 24.815608,102.95598 22.512068,100.2467 15.332233,91.802219 11.148213,82.147252 9.8543094,71.037892 9.5807207,68.68888 9.5445614,62.714899 9.7894148,60.316456 11.275619,45.758448 18.348974,32.740384 29.746835,23.586082 37.4199,17.423386 46.516816,13.58252 56.582278,12.255722 c 2.920302,-0.384945 9.735059,-0.419233 12.594937,-0.06337 14.82875,1.845183 27.758776,9.237494 36.617095,20.934599 9.50924,12.556631 12.97487,28.607238 9.51948,44.088239 -1.78261,7.986557 -5.2863,15.212128 -10.61872,21.898734 -1.66468,2.087426 -5.906254,6.316136 -8.0495,8.025076 -8.921085,7.11335 -19.392562,11.09467 -30.822785,11.71903 -2.495107,0.13629 -3.093641,0.13603 -5.632912,-0.002 z M 78.860759,97.405063 v -3.92405 l -3.322784,-0.03375 -3.322785,-0.03375 V 78.670886 63.928254 l 3.322785,-0.03375 3.322784,-0.03375 V 60 56.139241 L 63.06962,56.107103 47.278481,56.074965 v 3.924543 3.924543 h 3.35443 3.354431 v 14.746835 14.746836 h -3.354431 -3.35443 v 3.987834 3.987834 l 15.791139,-0.0321 15.791139,-0.0321 z M 65.075685,52.082906 c 2.386716,-0.416207 4.156212,-1.300953 5.88921,-2.944593 2.373128,-2.250765 3.537016,-4.922945 3.539192,-8.125655 0.001,-1.577126 -0.118303,-2.394909 -0.535849,-3.670886 -1.643599,-5.022676 -6.754466,-8.321549 -11.970481,-7.7265 -4.76538,0.543641 -8.540334,3.787809 -9.800763,8.422703 -0.391472,1.439535 -0.394493,4.247748 -0.0061,5.668833 1.572893,5.755003 7.144679,9.377091 12.884789,8.376098 z"
     id="path132" /></svg>
