<?xml version="1.0" encoding="UTF-8" standalone="no"?>
<svg
   height="24"
   id="svg1630"
   version="1.1"
   viewBox="0 0 6.3499999 6.3500002"
   width="24"
   xmlns="http://www.w3.org/2000/svg"
   xmlns:svg="http://www.w3.org/2000/svg">
  <defs
     id="defs1624" />
  <g
     id="layer1">
    <path
       d="m 3.4396795,2.3810689 c -0.247669,0 -0.4637929,0.032441 -0.6504699,0.097665 -0.02209,0.460343 -0.485763,0.6495838 -0.673907,0.9610246 v 0.2656491 c 0,0.1680768 0.0933,0.3117538 0.209009,0.3984736 0.115708,0.08672 0.259218,0.128918 0.410206,0.128918 h 2.4690509 c 0.4220602,6.879e-4 0.616312,-0.2055167 0.617264,-0.5273916 V 3.4397585 C 5.8200535,2.6458753 5.1396814,2.3855618 4.4984016,2.3810689 Z"
       id="path2010"
       style="color:#000000;font-style:normal;font-variant:normal;font-weight:normal;font-stretch:normal;font-size:medium;line-height:normal;font-family:sans-serif;font-variant-ligatures:normal;font-variant-position:normal;font-variant-caps:normal;font-variant-numeric:normal;font-variant-alternates:normal;font-variant-east-asian:normal;font-feature-settings:normal;font-variation-settings:normal;text-indent:0;text-align:start;text-decoration:none;text-decoration-line:none;text-decoration-style:solid;text-decoration-color:#000000;letter-spacing:normal;word-spacing:normal;text-transform:none;writing-mode:lr-tb;direction:ltr;text-orientation:mixed;dominant-baseline:auto;baseline-shift:baseline;text-anchor:start;white-space:normal;shape-padding:0;shape-margin:0;inline-size:0;clip-rule:nonzero;display:inline;overflow:visible;visibility:visible;isolation:auto;mix-blend-mode:normal;color-interpolation:sRGB;color-interpolation-filters:linearRGB;solid-color:#000000;solid-opacity:1;vector-effect:none;fill:#3771c8;fill-opacity:1;fill-rule:nonzero;stroke:none;stroke-width:0.529222;stroke-linecap:round;stroke-linejoin:round;stroke-miterlimit:4;stroke-dasharray:none;stroke-dashoffset:0;stroke-opacity:1;color-rendering:auto;image-rendering:auto;shape-rendering:auto;text-rendering:auto;enable-background:accumulate;stop-color:#000000" />
    <path
       d="m 3.9492676,0.52920856 c -0.427939,0.0104504 -0.774852,0.36576951 -0.774725,0.79382194 0,0.4352816 0.3585521,0.793822 0.7938469,0.7938218 0.435296,2e-7 0.7938471,-0.3585402 0.7938471,-0.7938218 0,-0.43528169 -0.3585511,-0.79382207 -0.7938471,-0.79382194 -0.0054,-4.464e-5 -0.01061,-6.607e-5 -0.016021,0 a 0.2646421,0.26463374 0 0 0 -0.0031,0 z"
       id="path2002"
       style="color:#000000;font-style:normal;font-variant:normal;font-weight:normal;font-stretch:normal;font-size:medium;line-height:normal;font-family:sans-serif;font-variant-ligatures:normal;font-variant-position:normal;font-variant-caps:normal;font-variant-numeric:normal;font-variant-alternates:normal;font-variant-east-asian:normal;font-feature-settings:normal;font-variation-settings:normal;text-indent:0;text-align:start;text-decoration:none;text-decoration-line:none;text-decoration-style:solid;text-decoration-color:#000000;letter-spacing:normal;word-spacing:normal;text-transform:none;writing-mode:lr-tb;direction:ltr;text-orientation:mixed;dominant-baseline:auto;baseline-shift:baseline;text-anchor:start;white-space:normal;shape-padding:0;shape-margin:0;inline-size:0;clip-rule:nonzero;display:inline;overflow:visible;visibility:visible;isolation:auto;mix-blend-mode:normal;color-interpolation:sRGB;color-interpolation-filters:linearRGB;solid-color:#000000;solid-opacity:1;vector-effect:none;fill:#87aade;fill-opacity:1;fill-rule:nonzero;stroke:none;stroke-width:0.529222;stroke-linecap:round;stroke-linejoin:round;stroke-miterlimit:4;stroke-dasharray:none;stroke-dashoffset:0;stroke-opacity:1;color-rendering:auto;image-rendering:auto;shape-rendering:auto;text-rendering:auto;enable-background:accumulate;stop-color:#000000" />
    <path
       d="m 1.8515946,3.9691033 c -0.699062,0 -1.32242705,0.3560765 -1.32242705,1.0586897 v 0.2636957 c 0,0.3408458 0.193603,0.5293447 0.61726305,0.5293447 h 2.4690519 c 0.4284921,5.08e-5 0.617262,-0.1884929 0.617262,-0.5293447 V 5.027793 c 0,-0.3234089 -0.126987,-0.6236054 -0.3711389,-0.8067138 -0.244152,-0.1831083 -0.56539,-0.2519759 -0.951287,-0.2519759 z"
       id="path1991"
       style="color:#000000;font-style:normal;font-variant:normal;font-weight:normal;font-stretch:normal;font-size:medium;line-height:normal;font-family:sans-serif;font-variant-ligatures:normal;font-variant-position:normal;font-variant-caps:normal;font-variant-numeric:normal;font-variant-alternates:normal;font-variant-east-asian:normal;font-feature-settings:normal;font-variation-settings:normal;text-indent:0;text-align:start;text-decoration:none;text-decoration-line:none;text-decoration-style:solid;text-decoration-color:#000000;letter-spacing:normal;word-spacing:normal;text-transform:none;writing-mode:lr-tb;direction:ltr;text-orientation:mixed;dominant-baseline:auto;baseline-shift:baseline;text-anchor:start;white-space:normal;shape-padding:0;shape-margin:0;inline-size:0;clip-rule:nonzero;display:inline;overflow:visible;visibility:visible;isolation:auto;mix-blend-mode:normal;color-interpolation:sRGB;color-interpolation-filters:linearRGB;solid-color:#000000;solid-opacity:1;vector-effect:none;fill:#3771c8;fill-opacity:1;fill-rule:nonzero;stroke:none;stroke-width:0.529222;stroke-linecap:round;stroke-linejoin:round;stroke-miterlimit:4;stroke-dasharray:none;stroke-dashoffset:0;stroke-opacity:1;color-rendering:auto;image-rendering:auto;shape-rendering:auto;text-rendering:auto;enable-background:accumulate;stop-color:#000000" />
    <path
       d="m 2.3615736,2.1168523 c -0.427938,0.01045 -0.774852,0.3657695 -0.774724,0.7938219 0,0.4352816 0.358551,0.7938219 0.793847,0.7938219 0.435295,0 0.793846,-0.3585403 0.793846,-0.7938219 0,-0.4352816 -0.358551,-0.793822 -0.793846,-0.7938219 -0.0054,-4.46e-5 -0.01061,-6.6e-5 -0.01602,0 a 0.2646421,0.26463374 0 0 0 -0.0031,0 z"
       id="path1981"
       style="color:#000000;font-style:normal;font-variant:normal;font-weight:normal;font-stretch:normal;font-size:medium;line-height:normal;font-family:sans-serif;font-variant-ligatures:normal;font-variant-position:normal;font-variant-caps:normal;font-variant-numeric:normal;font-variant-alternates:normal;font-variant-east-asian:normal;font-feature-settings:normal;font-variation-settings:normal;text-indent:0;text-align:start;text-decoration:none;text-decoration-line:none;text-decoration-style:solid;text-decoration-color:#000000;letter-spacing:normal;word-spacing:normal;text-transform:none;writing-mode:lr-tb;direction:ltr;text-orientation:mixed;dominant-baseline:auto;baseline-shift:baseline;text-anchor:start;white-space:normal;shape-padding:0;shape-margin:0;inline-size:0;clip-rule:nonzero;display:inline;overflow:visible;visibility:visible;isolation:auto;mix-blend-mode:normal;color-interpolation:sRGB;color-interpolation-filters:linearRGB;solid-color:#000000;solid-opacity:1;vector-effect:none;fill:#87aade;fill-opacity:1;fill-rule:nonzero;stroke:none;stroke-width:0.529222;stroke-linecap:round;stroke-linejoin:round;stroke-miterlimit:4;stroke-dasharray:none;stroke-dashoffset:0;stroke-opacity:1;color-rendering:auto;image-rendering:auto;shape-rendering:auto;text-rendering:auto;enable-background:accumulate;stop-color:#000000" />
  </g>
  <path
     style="fill:#b3b3b3;stroke-width:0.023369"
     d="M 3.8325219,21.963812 C 3.5511828,21.932364 3.2005958,21.837636 2.9912366,21.736496 2.5213067,21.509477 2.2581817,21.201712 2.0988001,20.692653 l -0.065653,-0.209693 7.26e-5,-1.016553 c 6.97e-5,-0.975512 0.00225,-1.026459 0.054059,-1.261928 0.3717399,-1.689613 1.7510109,-2.799867 3.8739606,-3.118372 0.3489939,-0.05236 0.9667118,-0.08246 1.6999097,-0.08285 0.3577411,-1.87e-4 0.6468463,-0.0082 0.6424564,-0.01787 -0.00439,-0.0096 -0.046116,-0.09114 -0.092725,-0.18111 C 8.0852046,14.561685 8.0265186,14.34754 8.0106908,14.073792 l -0.013862,-0.239742 0.1028513,0.03701 c 0.3613105,0.130007 0.9945163,0.170738 1.4232019,0.09155 0.2401315,-0.04436 0.615859,-0.166405 0.805,-0.261486 0.864369,-0.434515 1.477265,-1.262353 1.638698,-2.213387 0.05687,-0.335026 0.03642,-0.873132 -0.04535,-1.193673 -0.09589,-0.3758686 -0.217866,-0.6525031 -0.421776,-0.956585 -0.05957,-0.088838 -0.100141,-0.1689003 -0.09015,-0.1779163 0.02656,-0.023978 0.462744,-0.086362 0.812708,-0.1162353 0.207921,-0.017748 1.129807,-0.023161 2.921129,-0.017151 2.332139,0.00782 2.646616,0.013184 2.886076,0.049185 1.31699,0.1980017 2.209647,0.5820947 2.899996,1.2478116 0.52023,0.501669 0.831988,1.083592 0.985264,1.839085 0.04956,0.244261 0.05242,0.313969 0.0524,1.274942 l -2e-5,1.016553 -0.06565,0.209693 c -0.214755,0.68592 -0.656403,1.061843 -1.476663,1.256908 -0.207738,0.0494 -0.244529,0.05011 -2.995808,0.05794 l -2.785487,0.0079 0.262098,0.262008 c 0.304243,0.304139 0.503462,0.584053 0.681623,0.957718 0.315028,0.660722 0.40923,1.198389 0.408334,2.330581 -8.48e-4,1.070263 -0.106255,1.461538 -0.501108,1.860131 -0.277655,0.280284 -0.547269,0.414628 -1.063809,0.530075 l -0.222006,0.04962 -5.0944501,0.0042 c -2.8715087,0.0024 -5.1760257,-0.0049 -5.2814022,-0.01671 z"
     id="path184"
     transform="scale(0.26458334)" />
  <path
     style="fill:#ffffff;stroke-width:0.023369"
     d="m 3.7711491,21.942664 c -0.085167,-0.0099 -0.2376499,-0.0404 -0.338851,-0.06767 C 2.7020229,21.67822 2.3239468,21.333639 2.1044672,20.664806 l -0.063025,-0.192058 0.00936,-1.06987 c 0.010343,-1.182329 0.00816,-1.162463 0.1820704,-1.654095 0.4355793,-1.231324 1.49826,-2.115557 3.0073215,-2.502324 0.6461405,-0.165603 1.0668974,-0.208045 2.3080049,-0.232811 0.4112951,-0.0082 0.7512124,-0.01826 0.7553719,-0.02233 0.00416,-0.0041 -0.035351,-0.09607 -0.0878,-0.204431 -0.1099396,-0.227135 -0.1788591,-0.4881 -0.1981766,-0.7504 -0.012381,-0.168115 -0.010083,-0.182243 0.027286,-0.167751 0.2276957,0.0883 0.8622697,0.166448 1.1508355,0.141732 0.3824567,-0.03276 0.7679906,-0.132459 1.0956212,-0.283331 0.822302,-0.378666 1.474384,-1.215811 1.661233,-2.132697 0.05303,-0.260242 0.0643,-0.77807 0.02322,-1.066684 C 11.92205,10.150271 11.760091,9.7274709 11.523963,9.348239 11.394995,9.1411124 11.37329,9.1605514 11.80228,9.0989791 c 0.282314,-0.04052 0.498906,-0.043465 3.188962,-0.043356 l 2.886076,1.161e-4 0.303797,0.053087 c 1.318759,0.2304472 2.18922,0.6415711 2.861011,1.3512718 0.409254,0.432348 0.660594,0.908891 0.836833,1.586645 0.06036,0.232118 0.06083,0.240966 0.07034,1.314768 l 0.0096,1.081078 -0.06318,0.192534 c -0.223203,0.680156 -0.608886,1.031159 -1.371241,1.247941 l -0.216758,0.06164 -2.745861,0.01733 c -1.510224,0.0095 -2.786631,0.01847 -2.836459,0.01986 l -0.0906,0.0025 0.235234,0.244227 c 0.387165,0.401969 0.596604,0.713295 0.789347,1.173342 0.117587,0.280661 0.201261,0.573713 0.259157,0.90765 0.05376,0.310061 0.0614,1.90666 0.01046,2.185005 -0.07155,0.390935 -0.207771,0.655716 -0.470356,0.914237 -0.253042,0.249125 -0.486727,0.367152 -0.966468,0.488136 l -0.27708,0.06988 -5.1445367,-0.0031 c -2.8294955,-0.0017 -5.2142192,-0.01121 -5.2993861,-0.02116 z"
     id="path395"
     transform="scale(0.26458334)" />
  <path
     style="fill:#ffffff;stroke-width:0.023369"
     d="M 8.6815969,13.971946 C 7.3517796,13.819872 6.2723784,12.795481 6.0517697,11.476145 5.994199,11.131848 6.0133912,10.614708 6.0953972,10.300587 6.3882308,9.1788987 7.2462276,8.3376201 8.3594921,8.0806082 c 0.2677846,-0.061822 0.9108425,-0.073281 1.1750746,-0.020941 0.9202983,0.1822983 1.7243813,0.7923308 2.1442803,1.626798 0.331899,0.6595858 0.39268,1.5337108 0.155806,2.2407338 -0.300278,0.896268 -1.04119,1.632514 -1.9261817,1.914053 -0.436567,0.138883 -0.8086558,0.17852 -1.2268744,0.130694 z"
     id="path397"
     transform="scale(0.26458334)" />
  <path
     style="fill:#b3b3b3;stroke-width:0.023369"
     d="M 14.629017,7.967087 C 13.331372,7.7886807 12.279655,6.7822413 12.0545,5.503408 c -0.04756,-0.2701496 -0.04756,-0.734719 0,-1.0048686 0.213621,-1.213324 1.146588,-2.1682455 2.376826,-2.4327565 0.272174,-0.05852 0.845663,-0.059296 1.117841,-0.00151 1.041367,0.2210782 1.863976,0.9107139 2.234637,1.8734137 0.156386,0.4061737 0.185887,0.5780728 0.184481,1.0749756 -0.0014,0.4874382 -0.03233,0.6598236 -0.192995,1.0749757 -0.360094,0.9304599 -1.209623,1.6396061 -2.211512,1.846065 -0.227034,0.046785 -0.711466,0.064088 -0.934761,0.033388 z"
     id="path399"
     transform="scale(0.26458334)" />
  <path
     style="fill:#ececec;stroke-width:0.023369"
     d="M 8.5282296,13.938252 C 7.2860511,13.729436 6.260116,12.701896 6.0635995,11.469766 6.0201698,11.197468 6.045311,10.532045 6.1078704,10.298029 6.4256769,9.1092079 7.4393083,8.1947398 8.5871512,8.061296 8.9304661,8.021384 9.4372828,8.042381 9.6824263,8.106673 c 1.1213807,0.2940982 1.9853287,1.172954 2.2140237,2.252229 0.168359,0.794535 0.01916,1.600604 -0.417128,2.253557 C 10.90499,13.472016 9.9720432,13.980689 8.9853944,13.97223 8.8375852,13.97093 8.631861,13.95567 8.5282296,13.93825 Z"
     id="path470"
     transform="scale(0.26458334)" />
  <path
     style="fill:#ececec;stroke-width:0.023369"
     d="M 14.448512,7.924188 C 14.162843,7.8616812 13.960534,7.7919779 13.724908,7.6748784 13.370959,7.4989755 13.205405,7.3817342 12.925582,7.1088154 12.500631,6.6943504 12.211369,6.1727404 12.078549,5.5814052 c -0.05366,-0.2388921 -0.05366,-0.9219709 0,-1.160863 0.246761,-1.0986131 1.003369,-1.9258513 2.073075,-2.2665968 0.310198,-0.098811 0.574052,-0.1295433 0.979827,-0.1141249 0.348026,0.013224 0.61093,0.06539 0.907482,0.1800643 0.696888,0.2694812 1.306063,0.8241329 1.623825,1.4784885 0.222943,0.459097 0.296346,0.7817425 0.296346,1.3026004 0,0.5119303 -0.07746,0.8573948 -0.290815,1.2969815 -0.313629,0.6461917 -0.92023,1.2030723 -1.60593,1.4742997 -0.340899,0.1348421 -0.564771,0.1766447 -1.001015,0.1869149 -0.341013,0.00803 -0.44283,0.00222 -0.612832,-0.034982 z"
     id="path541"
     transform="scale(0.26458334)" />
  <path
     style="fill:#cccccc;stroke-width:0.023369"
     d="M 14.432824,7.9093355 C 14.092198,7.8354436 13.657436,7.6505447 13.357994,7.4522236 13.15131,7.3153367 12.796746,6.9705147 12.61859,6.7331355 12.338437,6.359853 12.119732,5.8365591 12.067585,5.4147461 c -0.04161,-0.3365863 -0.01328,-0.8661273 0.06089,-1.1382125 0.286232,-1.0500068 1.050393,-1.8174938 2.131741,-2.1410185 0.176219,-0.052722 0.262387,-0.063066 0.609748,-0.073198 0.264941,-0.00773 0.466533,-0.00183 0.584226,0.017097 0.616187,0.099084 1.152394,0.3775543 1.619468,0.841044 0.448676,0.4452328 0.75233,1.0157859 0.83987,1.5780813 0.03716,0.2386734 0.03077,0.8280164 -0.01157,1.0670793 -0.09571,0.5404125 -0.385015,1.0730213 -0.817471,1.5049393 -0.459011,0.4584395 -1.015587,0.7547733 -1.579128,0.8407632 -0.279948,0.042717 -0.87151,0.041622 -1.072531,-0.00199 z"
     id="path543"
     transform="scale(0.26458334)" />
</svg>
