<?xml version="1.0" encoding="UTF-8" standalone="no"?>
<!-- Generator: Adobe Illustrator 19.0.0, SVG Export Plug-In . SVG Version: 6.00 Build 0)  -->

<svg
   version="1.1"
   id="Capa_1"
   x="0px"
   y="0px"
   viewBox="0 0 463 463"
   style="enable-background:new 0 0 463 463;"
   xml:space="preserve"
   xmlns="http://www.w3.org/2000/svg"
   xmlns:svg="http://www.w3.org/2000/svg"><defs
   id="defs43" />
<g
   id="g8">
	<path
   d="M232.026,176c-30.603,0-55.5,24.897-55.5,55.5s24.897,55.5,55.5,55.5s55.5-24.897,55.5-55.5S262.628,176,232.026,176z    M232.026,272c-22.332,0-40.5-18.168-40.5-40.5s18.168-40.5,40.5-40.5s40.5,18.168,40.5,40.5S254.358,272,232.026,272z"
   id="path2" />
	<path
   d="M232.026,208c-4.143,0-7.5,3.357-7.5,7.5s3.357,7.5,7.5,7.5c4.687,0,8.5,3.813,8.5,8.5c0,4.143,3.357,7.5,7.5,7.5   s7.5-3.357,7.5-7.5C255.526,218.542,244.984,208,232.026,208z"
   id="path4" />
	<path
   d="M388.061,231.5c6.575-6.863,12.633-13.755,18.114-20.633c30.384-38.126,39.736-71.906,26.335-95.117   c-13.4-23.21-47.329-32.003-95.541-24.752c-8.713,1.31-17.729,3.115-26.977,5.384c-5.481-18.897-12.136-35.802-19.819-49.969   c3.342-4.06,5.352-9.256,5.352-14.913c0-12.958-10.542-23.5-23.5-23.5c-3.851,0-7.485,0.937-10.696,2.586   C251.954,3.563,242.116,0,232.026,0c-26.802,0-51.38,24.989-69.206,70.365c-3.216,8.185-6.156,16.879-8.812,26.004   c-9.23-2.262-18.229-4.063-26.926-5.371C78.873,83.75,44.942,92.539,31.54,115.75c-13.4,23.211-4.048,56.991,26.336,95.117   c5.492,6.891,11.564,13.797,18.153,20.673c-8.116,8.455-15.415,16.925-21.773,25.305C52.27,256.298,50.183,256,48.026,256   c-12.958,0-23.5,10.542-23.5,23.5c0,6.448,2.612,12.297,6.832,16.547c-7.722,19.95-7.677,37.587,0.183,51.203   c10.338,17.905,32.886,27.229,64.788,27.228c9.453,0,19.734-0.819,30.754-2.477c8.696-1.308,17.695-3.108,26.926-5.371   c2.656,9.125,5.596,17.818,8.812,26.004C180.646,438.01,205.224,463,232.026,463s51.38-24.99,69.206-70.366   c3.221-8.199,6.166-16.908,8.825-26.05c12.229,3.009,24.007,5.198,35.142,6.49c2.51,10.276,11.789,17.927,22.827,17.927   c11.237,0,20.652-7.93,22.956-18.487c19.723-3.6,34.036-12.287,41.528-25.263c13.401-23.211,4.049-56.991-26.335-95.117   C400.694,245.255,394.636,238.362,388.061,231.5z M339.199,105.832c41.085-6.182,70.361,0.169,80.32,17.418   c9.958,17.248,0.818,45.776-25.075,78.269c-5.142,6.452-10.823,12.924-16.987,19.374c-15.384-14.784-33.069-29.311-52.48-43.114   c-2.276-23.711-6.038-46.286-11.114-66.908C322.554,108.751,331.021,107.062,339.199,105.832z M272.276,301.215   c-13.373,7.721-26.836,14.775-40.218,21.113c-13.433-6.346-26.929-13.404-40.282-21.113c-13.383-7.727-26.234-15.866-38.423-24.294   c-1.204-14.769-1.827-29.968-1.827-45.421c0-15.439,0.622-30.624,1.824-45.38c12.221-8.471,25.085-16.633,38.426-24.336   c13.383-7.727,26.857-14.786,40.25-21.128c13.393,6.341,26.867,13.401,40.25,21.128c13.375,7.722,26.218,15.855,38.399,24.277   c1.215,14.78,1.851,29.993,1.851,45.439c0,15.453-0.623,30.652-1.827,45.421C298.51,285.349,285.659,293.488,272.276,301.215z    M308.752,296.33c-2.19,18.263-5.31,35.688-9.299,51.901c-16.001-4.652-32.673-10.667-49.597-17.894   c9.986-5.009,19.981-10.394,29.919-16.131C289.73,308.458,299.406,302.484,308.752,296.33z M214.275,330.348   c-16.936,7.247-33.611,13.266-49.668,17.923c-3.993-16.224-7.117-33.663-9.308-51.942c9.346,6.154,19.022,12.129,28.977,17.876   C194.215,319.943,204.242,325.328,214.275,330.348z M137.518,265.531c-14.716-11.024-28.241-22.434-40.284-33.99   c12.029-11.53,25.574-22.961,40.28-33.999c-0.654,11.147-0.988,22.489-0.988,33.958   C136.526,242.994,136.861,254.361,137.518,265.531z M155.294,166.708c2.192-18.292,5.317-35.744,9.313-51.979   c16.047,4.654,32.712,10.668,49.637,17.909c-10.002,5.016-20.015,10.409-29.969,16.156   C174.342,154.529,164.664,160.522,155.294,166.708z M249.807,132.638c16.916-7.237,33.572-13.249,49.611-17.901   c3.961,16.151,7.09,33.594,9.294,51.907c-9.333-6.145-18.996-12.11-28.936-17.849C269.821,143.047,259.809,137.654,249.807,132.638   z M326.509,197.45c14.743,11.042,28.291,22.473,40.352,34.05c-12.054,11.57-25.594,22.995-40.328,34.032   c0.657-11.17,0.993-22.537,0.993-34.031C327.526,220.011,327.178,208.635,326.509,197.45z M280.526,31.5c0,4.687-3.813,8.5-8.5,8.5   s-8.5-3.813-8.5-8.5s3.813-8.5,8.5-8.5S280.526,26.813,280.526,31.5z M176.78,75.851C191.973,37.179,212.109,15,232.026,15   c6.239,0,12.529,2.173,18.755,6.467c-1.444,3.045-2.255,6.445-2.255,10.033c0,12.958,10.542,23.5,23.5,23.5   c1.855,0,3.658-0.223,5.391-0.631c6.989,13.04,13.078,28.54,18.132,45.882c-20.478,5.926-41.882,13.971-63.522,23.868   c-21.644-9.899-43.05-17.944-63.53-23.87C170.999,91.685,173.764,83.53,176.78,75.851z M44.53,123.25   c9.958-17.249,39.235-23.597,80.321-17.418c8.159,1.227,16.604,2.911,25.272,5.023c-5.111,20.715-8.849,43.294-11.098,67.007   c-19.344,13.794-37.03,28.345-52.385,43.081c-6.182-6.467-11.879-12.955-17.034-19.424C43.712,169.026,34.572,140.498,44.53,123.25   z M48.026,271c4.687,0,8.5,3.813,8.5,8.5s-3.813,8.5-8.5,8.5s-8.5-3.813-8.5-8.5S43.339,271,48.026,271z M124.852,357.168   c-41.083,6.177-70.362-0.169-80.321-17.418c-6.524-11.302-3.874-25.618,0.316-36.971c1.041,0.141,2.101,0.221,3.179,0.221   c12.958,0,23.5-10.542,23.5-23.5c0-5.349-1.8-10.283-4.821-14.237c5.845-7.651,12.521-15.387,19.926-23.121   c15.364,14.761,33.021,29.265,52.4,43.048c2.249,23.693,5.985,46.254,11.093,66.954   C141.456,354.257,133.01,355.941,124.852,357.168z M287.27,387.149C272.077,425.82,251.942,448,232.026,448   c-19.917,0-40.053-22.18-55.245-60.851c-3.017-7.679-5.781-15.835-8.285-24.398c20.493-5.93,41.915-13.982,63.573-23.89   c21.631,9.868,43.068,17.91,63.503,23.838C293.063,371.281,290.293,379.454,287.27,387.149z M368.026,376   c-4.687,0-8.5-3.813-8.5-8.5s3.813-8.5,8.5-8.5s8.5,3.813,8.5,8.5S372.712,376,368.026,376z M419.52,339.75   c-5.18,8.972-15.342,14.946-30.207,17.81c-3.752-8.002-11.881-13.56-21.287-13.56c-9.626,0-17.915,5.82-21.543,14.125   c-10.313-1.215-21.218-3.242-32.547-6.013c5.104-20.691,8.837-43.24,11.085-66.921c19.394-13.794,37.065-28.311,52.437-43.083   c6.164,6.45,11.845,12.922,16.987,19.374C420.338,293.974,429.478,322.502,419.52,339.75z"
   id="path6" />
</g>
<g
   id="g10">
</g>
<g
   id="g12">
</g>
<g
   id="g14">
</g>
<g
   id="g16">
</g>
<g
   id="g18">
</g>
<g
   id="g20">
</g>
<g
   id="g22">
</g>
<g
   id="g24">
</g>
<g
   id="g26">
</g>
<g
   id="g28">
</g>
<g
   id="g30">
</g>
<g
   id="g32">
</g>
<g
   id="g34">
</g>
<g
   id="g36">
</g>
<g
   id="g38">
</g>
<path
   style="fill:#ffffff;stroke-width:0.450828"
   d="m 227.89338,462.46789 c -19.48035,-1.69182 -38.47559,-17.96321 -53.79828,-46.0838 -6.30997,-11.58021 -11.08424,-22.96155 -16.37714,-39.04134 -1.91803,-5.82695 -3.52944,-10.65968 -3.58092,-10.7394 -0.0515,-0.0797 -2.96041,0.48299 -6.46429,1.25047 -18.67487,4.09046 -31.39107,5.77651 -46.68736,6.19031 -36.69339,0.99265 -60.905545,-9.32209 -70.771725,-30.1498 -3.282195,-6.92878 -4.053082,-10.83327 -4.032727,-20.42549 0.01939,-9.13845 0.697146,-13.294 3.645898,-22.35424 1.042543,-3.20328 1.495041,-5.24599 1.236755,-5.58308 -4.394153,-5.73478 -6.109964,-10.23231 -6.133996,-16.07858 -0.02663,-6.47897 2.097942,-11.50705 6.8849,-16.29401 5.298324,-5.29832 12.442869,-7.74099 19.458005,-6.65256 l 3.259356,0.50571 0.9108,-1.2557 c 2.240447,-3.08884 11.016884,-13.48268 15.715936,-18.61221 l 5.15433,-5.62652 -4.135884,-4.5171 C 55.821537,209.13752 44.827815,193.99356 36.980723,178.51726 28.787496,162.35831 25.587617,150.3118 26.029772,137.29051 c 0.263096,-7.74807 1.312114,-12.17561 4.382601,-18.49742 7.883003,-16.23028 23.687816,-25.601473 49.158708,-29.147801 5.68958,-0.792167 27.745959,-0.801815 34.939139,-0.01528 11.09804,1.213502 21.19632,2.895152 33.28322,5.542619 3.4375,0.752932 6.29899,1.303749 6.35885,1.224029 0.0599,-0.07972 1.17725,-3.492341 2.48306,-7.583602 10.63417,-33.318111 23.40414,-56.624181 39.53552,-72.154982 11.57594,-11.1449622 23.08815,-16.31544693 36.23079,-16.27233915 9.15466,0.0300274 17.96602,2.96018845 26.449,8.79544645 l 2.30229,1.5836937 3.09392,-1.0757029 c 6.48,-2.252981 12.58482,-1.7984714 18.6496,1.3884819 3.60614,1.894976 7.93283,6.191478 9.65258,9.585246 3.77774,7.455004 3.44307,16.14916 -0.89199,23.172516 l -1.6667,2.700258 3.16616,6.375763 c 5.49957,11.074626 10.58002,23.969951 14.5884,37.028684 1.06554,3.471373 2.00117,6.401049 2.07918,6.510388 0.078,0.10934 2.01346,-0.246679 4.30102,-0.791152 10.21469,-2.431255 24.30091,-4.840916 35.26631,-6.032841 8.33784,-0.906308 29.76833,-0.769684 36.51704,0.232803 17.03397,2.53032 29.34501,7.675918 38.10391,15.926142 15.71274,14.80022 18.41598,36.18328 7.88522,62.37325 -7.26811,18.07576 -22.77837,40.77976 -40.68804,59.55935 -1.7998,1.88722 -3.27236,3.62118 -3.27236,3.85325 0,0.23207 0.82965,1.22389 1.84368,2.20404 2.75434,2.66234 12.16886,13.50797 16.72043,19.26212 11.78782,14.90233 20.4449,29.2632 25.74388,42.70547 10.0769,25.5627 7.26929,46.96246 -8.03832,61.26867 -7.89325,7.37688 -17.23079,11.74656 -32.25055,15.09228 -0.89734,0.19988 -1.29788,0.70262 -1.74138,2.18569 -2.50215,8.36724 -10.28278,14.94009 -19.18378,16.2059 -6.16667,0.87696 -12.57294,-0.95511 -17.74807,-5.0756 -2.71681,-2.16315 -6.42087,-7.51368 -7.24887,-10.47097 -0.3256,-1.16295 -0.81923,-2.11816 -1.09695,-2.1227 -2.97904,-0.0487 -20.09401,-3.06457 -28.59482,-5.03872 -3.44121,-0.79915 -6.14935,-1.22163 -6.35116,-0.9908 -0.19351,0.22134 -1.62341,4.35845 -3.17756,9.19357 -9.89678,30.79 -22.73311,54.35932 -37.68883,69.20205 -13.08507,12.98618 -26.39728,18.56386 -41.23152,17.27558 z m 11.04544,-15.2469 c 6.83556,-1.74824 12.26298,-4.98416 18.81094,-11.21539 11.31527,-10.76795 20.95991,-26.63225 29.79825,-49.01463 2.0065,-5.08129 4.97429,-13.73915 7.97419,-23.2629 0.37114,-1.17826 0.30197,-1.24018 -2.17752,-1.94899 -14.46662,-4.13557 -36.38189,-12.25417 -54.23679,-20.09222 l -7.04401,-3.09221 -5.12834,2.29601 c -17.07398,7.64423 -41.36725,16.71434 -55.99722,20.90708 -3.1163,0.89308 -3.16019,-0.19866 0.43466,10.81132 6.9901,21.40866 15.84116,39.72179 25.50691,52.77466 6.57742,8.88232 15.879,17.1039 22.67796,20.04484 6.33401,2.73983 13.1955,3.3744 19.38097,1.79243 z m 133.19475,-72.1198 c 3.18979,-1.62731 4.79807,-4.75873 4.42707,-8.61978 -0.56524,-5.88259 -6.78093,-9.28651 -12.34423,-6.76011 -3.601,1.63528 -5.3472,5.59055 -4.48863,10.1671 0.35813,1.90898 2.61973,4.64012 4.53258,5.4736 2.0639,0.8993 5.84471,0.77405 7.87321,-0.26081 z M 116.5344,358.41666 c 9.02569,-1.041 18.18485,-2.58183 27.27962,-4.58922 3.47137,-0.76619 6.35946,-1.43247 6.41797,-1.48061 0.0585,-0.0481 -0.79469,-4.1309 -1.89601,-9.07282 -3.80901,-17.09193 -7.24345,-38.54983 -8.61778,-53.84266 -0.16712,-1.85966 -0.46991,-3.70321 -0.67286,-4.09676 -0.20296,-0.39356 -3.24754,-2.80858 -6.76575,-5.3667 -12.02957,-8.74684 -26.68235,-20.76393 -38.882139,-31.88817 l -6.686288,-6.09682 -1.810988,1.74638 c -2.530419,2.44015 -10.266572,11.23879 -14.664464,16.67849 l -3.689155,4.56308 2.004637,4.00265 c 2.47064,4.93311 3.151174,8.66383 2.471627,13.54958 -0.704093,5.06223 -2.919892,9.45315 -6.65546,13.18872 -4.69805,4.69805 -9.72705,6.85842 -16.127926,6.9283 l -3.767466,0.0411 -1.359618,4.75846 c -2.168301,7.58873 -2.508091,9.79667 -2.501501,16.25458 0.0045,4.43866 0.224553,6.87941 0.812804,9.01655 4.232422,15.37652 19.161838,24.35072 44.233601,26.5892 6.633118,0.59223 21.860616,0.15659 30.877146,-0.88335 z m 231.44712,-2.48932 c 1.51857,-2.90625 6.15425,-7.42203 9.20496,-8.96685 5.60935,-2.84046 12.71673,-3.38432 18.33274,-1.40282 5.27635,1.86166 9.89842,5.65589 12.69542,10.4216 l 1.08819,1.85414 2.8111,-0.64321 c 14.05014,-3.21483 23.85743,-9.74662 28.46779,-18.95994 4.4698,-8.93242 3.79859,-22.98088 -1.7715,-37.07739 -5.44588,-13.78219 -14.80357,-28.63761 -27.98449,-44.42566 -5.81965,-6.97075 -12.82266,-14.63276 -13.37422,-14.63276 -0.25499,0 -2.10942,1.57226 -4.12095,3.49391 -10.77471,10.29325 -25.97786,22.85126 -41.83398,34.55545 l -6.62416,4.88962 -0.2792,2.53708 c -2.49257,22.65061 -6.09586,44.64214 -9.85402,60.14084 -0.58761,2.42336 -0.9382,4.48656 -0.77908,4.58491 0.66513,0.41108 15.69208,3.46262 22.14396,4.49681 3.83667,0.61498 7.48295,1.2023 8.10283,1.30514 0.61989,0.10284 1.43138,0.21413 1.80331,0.24731 0.39308,0.0351 1.21853,-0.9775 1.9713,-2.41818 z M 176.49903,344.77293 c 13.43773,-4.35023 36.31443,-13.05114 37.5662,-14.28791 0.20511,-0.20265 -3.34516,-2.28802 -7.88948,-4.63415 -14.40534,-7.43714 -29.4685,-16.13285 -43.87779,-25.32991 -5.83714,-3.72568 -6.78194,-4.19505 -6.90514,-3.43034 -0.45448,2.82125 4.50043,32.10564 7.87658,46.55192 1.12865,4.82938 1.13644,4.84459 2.33463,4.55691 0.66121,-0.15876 5.56396,-1.70069 10.895,-3.42652 z m 123.50806,2.02624 c 1.89192,-6.74071 5.66876,-26.72602 7.43352,-39.33471 0.64203,-4.58717 1.27427,-8.99965 1.40497,-9.8055 0.1307,-0.80586 0.0954,-1.46519 -0.0785,-1.46519 -0.17387,0 -2.76968,1.59162 -5.76849,3.53694 -12.48356,8.09806 -28.89144,17.63735 -44.40027,25.81364 l -9.19328,4.84672 1.75463,0.74741 c 4.73085,2.01517 17.79688,7.14712 23.61976,9.27714 5.59763,2.04761 23.49088,7.93412 24.43622,8.039 0.1743,0.0193 0.53045,-0.72562 0.79142,-1.65545 z m -59.09692,-28.49872 c 20.62734,-10.2382 41.32082,-22.17009 60.75408,-35.03088 l 9.0771,-6.00716 0.26941,-2.36855 c 1.92349,-16.91033 1.92486,-70.02366 0.002,-86.78772 l -0.27164,-2.36855 -9.0771,-6.00471 c -14.39983,-9.5258 -25.56063,-16.24196 -41.53672,-24.99526 -10.405,-5.7009 -27.02187,-14.07939 -27.92331,-14.07939 -0.89048,0 -9.94165,4.37086 -20.09223,9.70265 -18.41017,9.67029 -33.68487,18.72105 -50.76922,30.08242 l -8.16838,5.43212 -0.28005,3.4267 c -1.88667,23.08535 -1.88436,61.34563 0.005,84.45677 l 0.28514,3.48771 8.83955,5.80628 c 21.42208,14.07117 37.83344,23.52513 60.7603,35.00172 4.66958,2.33747 8.82615,4.25832 9.23683,4.26856 0.41068,0.0102 4.41068,-1.79998 8.8889,-4.02271 z M 51.975847,287.22519 c 3.020892,-1.5418 4.603023,-4.19256 4.603023,-7.71204 0,-5.02368 -3.542053,-8.56573 -8.565725,-8.56573 -5.021778,0 -8.565725,3.54212 -8.565725,8.5613 0,5.02044 3.460598,8.51418 8.470978,8.5521 1.482232,0.0112 3.017848,-0.30504 4.057449,-0.83563 z M 137.55825,262.4944 c -0.60605,-6.29341 -0.8365,-43.65741 -0.33413,-54.17419 0.27734,-5.80613 0.41405,-10.64682 0.3038,-10.75708 -0.52239,-0.52238 -20.52573,15.66891 -31.13259,25.19963 -7.479564,6.7207 -9.539174,8.85936 -8.994687,9.33987 0.235927,0.20821 2.157742,1.98364 4.270697,3.94541 11.03204,10.24269 34.37374,29.48945 35.76361,29.48945 0.2424,0 0.29391,-1.27137 0.1233,-3.04309 z m 195.91701,-1.9751 c 10.52335,-8.18884 21.09537,-17.17285 30.52682,-25.94141 l 3.33996,-3.10521 -6.49575,-5.92095 c -12.95834,-11.81163 -33.73774,-28.74659 -34.40971,-28.04348 -0.0944,0.0988 0.009,3.42564 0.22977,7.39292 0.71593,12.86227 0.52336,50.71705 -0.29757,58.49489 -0.13213,1.25182 -0.0425,2.14143 0.21583,2.14143 0.24302,0 3.34381,-2.25818 6.89065,-5.01819 z M 92.194255,216.11156 c 13.659495,-12.59317 32.735985,-28.02163 46.820595,-37.86701 0.088,-0.0615 0.63815,-4.33396 1.22265,-9.49439 2.13342,-18.83557 4.83307,-34.95429 8.58584,-51.26313 0.84997,-3.69379 1.49069,-6.7622 1.42383,-6.81869 -0.32484,-0.27443 -13.50383,-3.01983 -19.28174,-4.0167 -29.52495,-5.09399 -52.702953,-4.345 -68.897021,2.22638 -18.656341,7.57053 -25.406254,22.83604 -19.633748,44.40338 4.847559,18.11154 18.04091,39.24039 38.93973,62.36108 2.60353,2.88033 4.936563,5.23964 5.184518,5.24291 0.247956,0.003 2.783861,-2.14495 5.635346,-4.77383 z m 291.091465,-1.17948 c 21.49845,-24.05872 33.7453,-43.92772 38.55597,-62.55233 1.74565,-6.75831 2.19113,-15.11469 1.09352,-20.51266 -2.58014,-12.68899 -12.60658,-21.44462 -29.46716,-25.73235 -7.98064,-2.02951 -13.89636,-2.62304 -26.04351,-2.61294 -12.01644,0.01 -19.07407,0.60596 -31.78335,2.68391 -5.59946,0.9155 -21.52471,4.14704 -21.96956,4.45803 -0.0574,0.0402 0.39245,2.12498 0.99972,4.63294 3.1104,12.84563 6.64608,33.13959 8.54215,49.03 0.65091,5.45501 1.28965,10.76892 1.41944,11.80868 0.22476,1.80068 0.454,2.04694 4.82625,5.18452 14.10332,10.12073 38.7193,30.50834 45.83056,37.95809 0.8545,0.89517 1.80216,1.62758 2.1059,1.62758 0.30376,0 2.95429,-2.68806 5.89007,-5.97347 z m -221.09069,-52.3693 c 11.77876,-7.6778 30.13828,-18.28734 45.05442,-26.0359 3.89508,-2.02339 6.99115,-3.82585 6.88015,-4.00545 -0.83209,-1.34635 -40.62995,-15.88666 -48.52557,-17.72901 -1.19711,-0.27932 -1.207,-0.25997 -2.33463,4.56504 -3.16848,13.5577 -7.95927,41.44678 -7.95927,46.33407 0,1.39171 -0.16539,1.46687 6.8849,-3.12875 z m 146.58884,2.77826 c -1.81846,-13.20354 -3.22036,-22.12162 -4.69684,-29.87859 -1.85926,-9.76792 -4.19822,-20.33783 -4.58633,-20.72596 -0.82048,-0.82047 -34.48503,11.03968 -47.91113,16.87928 l -2.2264,0.96836 9.66506,5.09994 c 15.48623,8.17159 35.11026,19.63831 45.72725,26.71938 1.98143,1.32153 3.74381,2.40278 3.9164,2.40278 0.17259,0 0.22298,-0.65933 0.11199,-1.46519 z m -70.32692,-43.82171 c 14.3191,-6.35546 34.31958,-13.98332 46.69154,-17.80739 11.55296,-3.57092 10.49927,-3.08529 10.18486,-4.694088 -1.04694,-5.356946 -8.18518,-24.729574 -12.92445,-35.075911 -3.63642,-7.938701 -4.85109,-9.967254 -5.75953,-9.618651 -0.39542,0.151739 -2.45129,0.273134 -4.56859,0.269766 -15.87187,-0.02525 -27.08024,-15.455383 -22.05736,-30.365563 0.67549,-2.005173 0.77479,-2.826079 0.39692,-3.28138 -0.96327,-1.160667 -8.79629,-4.652031 -12.02151,-5.358273 -14.28236,-3.127478 -28.38626,4.404946 -41.66868,22.253853 -9.45496,12.705568 -18.40149,31.246017 -25.35717,52.549251 -3.54199,10.848086 -3.45147,9.987256 -1.11453,10.598296 4.09806,1.07153 24.83405,8.14532 32.38858,11.04891 7.81187,3.0025 25.67212,10.50209 27.91514,11.72169 0.63978,0.34787 1.20312,0.64061 1.25184,0.65054 0.0487,0.01 3.03806,-1.29104 6.64294,-2.89105 z m 37.5624,-82.351941 c 4.69467,-2.272653 6.08923,-8.983135 2.74927,-13.229208 -2.09109,-2.658392 -7.05988,-3.766349 -10.42794,-2.325254 -1.75439,0.750653 -3.69987,2.753369 -4.35241,4.480443 -1.17293,3.104434 -0.17815,7.828451 2.07819,9.868873 2.47822,2.241068 6.74557,2.75778 9.95289,1.205146 z"
   id="path218" /><path
   style="fill:#ffffff;stroke-width:0.450828"
   d="m 224.09955,286.25649 c -23.61314,-3.70075 -42.10869,-21.71715 -46.49357,-45.28911 -1.13172,-6.08385 -0.73192,-16.93586 0.84397,-22.90798 6.32607,-23.97392 26.82061,-40.62282 51.27657,-41.65492 15.92191,-0.67194 29.73327,4.77603 41.27807,16.28238 14.10329,14.05631 19.46572,33.873 14.34595,53.01502 -2.55325,9.54619 -7.15988,17.44913 -14.34595,24.61127 -8.17818,8.15094 -16.84053,12.91805 -27.85627,15.33002 -3.89969,0.85385 -15.19373,1.2175 -19.04877,0.61332 z m 18.03684,-15.33663 c 14.90483,-3.8543 26.55015,-16.04538 29.7196,-31.1124 0.85931,-4.08504 0.85931,-12.52988 0,-16.61492 -3.16753,-15.05789 -14.72526,-27.16669 -29.76154,-31.18056 -4.77445,-1.27452 -14.25985,-1.40159 -18.93476,-0.25366 -15.06398,3.69897 -25.77136,13.79854 -30.28165,28.56269 -1.09906,3.59769 -1.2115,4.63521 -1.2115,11.17899 0,6.54378 0.11244,7.5813 1.2115,11.17899 4.58305,15.00233 16.59867,26.05076 31.1833,28.6732 1.48773,0.26751 3.21215,0.5763 3.83204,0.68621 2.40545,0.42648 10.82534,-0.23475 14.24301,-1.11854 z"
   id="path220" /><path
   style="fill:#ffffff;stroke-width:0.450828"
   d="m 245.78394,238.28549 c -3.1871,-1.13666 -4.50594,-2.97241 -5.03675,-7.0109 -0.74548,-5.6717 -3.17783,-7.74205 -10.37017,-8.82681 -3.48055,-0.52494 -6.20137,-4.70601 -5.46344,-8.39565 0.39155,-1.95778 2.35671,-4.3913 4.15182,-5.14135 4.90559,-2.04969 13.96237,0.89756 19.36696,6.30237 4.53374,4.53394 7.68534,12.73794 6.76924,17.62117 -0.40997,2.18533 -2.92433,4.91315 -5.1408,5.57721 -2.1324,0.63889 -2.13205,0.6389 -4.27686,-0.12604 z"
   id="path222" /></svg>
